<svg xmlns="http://www.w3.org/2000/svg" width="16" height="45" viewBox="0 0 16 45"><path fill="#5da8ef" d="M8 1C5.68 1 0 8.21 0 21.58c0 13.5 4.97 22.66 5.18 23.05l.2.37h5.24l.2-.37c.21-.39 5.18-9.54 5.18-23.05C16 8.21 10.32 1 8 1zm1.73 42.58h-1v-4.97H7.27v4.97h-1a48.98 48.98 0 0 1-4-12.84 16.02 16.02 0 0 0 5.36 4.93c2.82 1.64 3.5 3.7 3.64 4.29a37.83 37.83 0 0 1-1.54 3.62zm2.24-5.66a9.63 9.63 0 0 0-3.6-3.47c-5.74-3.33-6.65-8.18-6.78-9.15-.06-.84-.1-1.7-.11-2.58 1.04 1.88 2.88 4.04 6.16 5.86 4.67 2.6 5.46 5.19 5.47 5.23-.36 1.52-.75 2.9-1.14 4.11zm-3.6-10.58c-6.87-3.82-6.78-9.3-6.78-9.3C2.31 8.8 5.62 4.32 7.27 2.87v22.25h1.46V2.88c1.86 1.63 5.81 7.52 5.81 18.7 0 3.73-.4 7.13-.97 10.1a15.62 15.62 0 0 0-5.2-4.34z"/></svg>